# xmcd
#
# Track frame offsets: 
#        183
#        17295
#        40120
#        57768
#
# Disc length: 1070 seconds
#
# Revision: 0
# Processed by: cddbd v1.5.1PL0 Copyright (c) Steve Scherf et al.
# Submitted via: ExactAudioCopy v0.95a5
#
DISCID=21042c04
DTITLE=Jamestown ft. Jocelyn Brown - She Got Soul
DYEAR=1991
DGENRE=Soul
TTITLE0=She Got Soul (Harry's 7'')
TTITLE1=She Got Soul (The Harry Mix)
TTITLE2=She Got Soul (Cactus 7'')
TTITLE3=She Got Soul (The Cactus Mix)
EXTD=
EXTT0=
EXTT1=
EXTT2=
EXTT3=
PLAYORDER=
